<svg width="256" height="256" viewBox="0 0 256 256" fill="none" xmlns="http://www.w3.org/2000/svg">
  <rect width="256" height="256" rx="64" fill="#EAF4FF"/>
  <path d="M128 205C126 205 124.2 204.3 122.7 203C99.6 182.8 82 167 69.8 154.3C57.4 141.3 49 129.4 44.5 118.2C40 106.9 39 96.2 41.4 86C45.4 69.4 56.6 56.4 71.9 49.4C87.3 42.2 104.9 41.8 120.6 49.6C123.4 51 125.9 52.6 128 54.3C130.1 52.6 132.6 51 135.4 49.6C151.1 41.8 168.7 42.2 184.1 49.4C199.4 56.4 210.6 69.4 214.6 86C217 96.2 216 106.9 211.5 118.2C207 129.4 198.6 141.3 186.2 154.3C174 167 156.4 182.8 133.3 203C131.8 204.3 130 205 128 205Z" fill="#2F7CF6"/>
  <path d="M76 127H106L117 102L136 152L149 121H180" stroke="white" stroke-width="13" stroke-linecap="round" stroke-linejoin="round"/>
</svg>
